<svg width="534" height="537" viewBox="0 0 534 537" fill="none" xmlns="http://www.w3.org/2000/svg">
<g clip-path="url(#clip0_349_6645)">
<path d="M400.76 383.7L366.33 234.1C365.68 231.28 364.54 228.53 362.97 226.04C345.65 246.02 322.86 272.83 298.95 302.46C298.93 302.49 298.91 302.51 298.88 302.54C302.11 309.39 304.66 316.69 306.42 324.37C309.44 337.53 309.91 350.69 308.17 363.33L311.54 364.31C312.14 365.16 313.39 367.25 315.14 367.92C319.43 369.28 324.26 369.77 330.09 370.38C332.83 370.61 335.19 370.48 338.1 371.03C338.79 371.16 339.81 371.43 340.52 371.6H340.53C345.45 372.78 348.61 377.3 347.59 381.76C346.57 386.21 341.77 388.92 336.82 387.85C336.79 387.85 336.74 387.84 336.7 387.84C336.64 387.82 336.59 387.8 336.54 387.78C335.85 387.63 334.98 387.48 334.38 387.32C331.53 386.56 329.46 385.41 326.89 384.43C321.37 382.45 316.8 380.8 312.35 380.15C310.09 379.98 308.93 381.06 307.68 381.88C307.07 381.76 305.19 381.43 304.11 381.26C296.12 406.38 279.1 428.13 256.02 441.76C256.42 442.72 257.09 444.77 257.41 445.13C256.88 446.54 256.09 447.88 256.77 450.05C258.38 454.25 261 458.35 264.16 463.3C265.69 465.58 267.26 467.33 268.64 469.94C268.97 470.57 269.41 471.53 269.73 472.19C271.87 476.78 270.3 482.06 266.18 484.05C262.03 486.04 256.87 483.93 254.64 479.32C254.33 478.67 253.88 477.8 253.61 477.18C252.43 474.47 252.02 472.15 251.19 469.53C249.29 463.98 247.74 459.39 245.46 455.51C244.19 453.63 242.63 453.39 241.2 452.92C240.94 452.46 239.95 450.65 239.42 449.71C234.75 451.48 229.97 452.92 225.11 454.03C213.1 456.75 201.09 457.35 189.47 456.07C189.45 456.1 189.43 456.14 189.41 456.17C164.76 499.76 165.18 515.62 165.62 518.76L181.64 536L278.33 535.97C286.44 535.97 294.11 532.32 299.17 526.04L395.61 406.07C400.67 399.78 402.57 391.54 400.76 383.7ZM285.06 329.22C284.51 326.85 283.87 324.52 283.15 322.24C278.71 327.88 274.25 333.59 269.82 339.33C267.06 342.91 264.35 346.45 261.69 349.94L286.88 357.19C287.78 348.09 287.23 338.66 285.06 329.22ZM217.84 410.73C212.18 419.12 206.96 427.15 202.17 434.81C208.12 434.73 214.16 434.02 220.19 432.65C223.05 432 225.88 431.21 228.67 430.28L217.84 410.73ZM211.26 262.52L212.45 280.72C217.24 275.64 221.93 270.69 226.52 265.9C221.63 264.37 216.42 263.16 211.26 262.52ZM212.5 149.6C208.48 147.68 204.04 146.79 199.58 147.02C196.03 147.2 192.56 148.08 189.36 149.6L49.98 216.2C42.67 219.69 37.36 226.29 35.56 234.14L1.17002 383.73C-0.429979 390.7 0.870021 398.01 4.79002 404C5.26002 404.73 5.77002 405.43 6.30002 406.11L51.74 462.61H51.76C52.29 461.94 73.73 436.14 105.49 399.5C102.44 393.84 99.74 387.7 97.71 381.42L94.07 382.04C93.1 381.5 91.14 380.2 89.28 380.35C84.82 380.99 80.25 382.65 74.73 384.63C72.16 385.61 70.1 386.73 67.24 387.5C66.64 387.66 65.78 387.83 65.09 387.98C65.03 387.99 64.98 388.02 64.93 388.03C64.89 388.05 64.84 388.05 64.8 388.05C59.85 389.12 55.05 386.41 54.03 381.95C53.02 377.5 56.18 372.98 61.09 371.79C61.13 371.78 61.22 371.76 61.22 371.76L61.29 371.74C61.99 371.58 62.88 371.34 63.52 371.22C66.42 370.67 68.78 370.81 71.52 370.58C77.35 369.97 82.19 369.47 86.48 368.12C87.84 367.56 89.14 365.69 90.06 364.5L93.56 363.49C89.64 336.37 96.27 309.77 110.58 288.22L107.91 285.83C107.74 284.79 107.51 282.39 106.23 281.02C102.95 277.94 98.81 275.39 93.82 272.3C91.45 270.91 89.28 270.01 86.91 268.26C86.4 267.88 85.73 267.31 85.18 266.87C85.14 266.84 85.09 266.81 85.05 266.78C81.05 263.59 80.13 258.08 83 254.48C84.62 252.45 87.09 251.45 89.65 251.54C91.65 251.6 93.71 252.33 95.46 253.73C96.03 254.18 96.81 254.77 97.32 255.21C99.56 257.14 100.92 259.04 102.81 261.04C106.92 265.22 110.32 268.69 114.06 271.2C116.02 272.34 117.52 271.88 119.01 271.68C120.01 272.41 121.01 273.12 122.02 273.82C136.22 258.75 154.87 247.6 176.54 242.68C181.5 241.55 186.54 240.78 191.62 240.36L191.81 236.83C192.93 235.75 194.17 234.21 194.52 232.52C194.89 228.03 194.3 223.2 193.6 217.38C193.21 214.66 192.57 212.4 192.46 209.45C192.42 208.84 192.46 208.01 192.46 207.31V207.08C192.46 201.96 196.19 197.81 200.8 197.81C205.41 197.81 209.14 201.96 209.14 207.08C209.14 207.8 209.18 208.78 209.16 209.45C209.05 212.4 208.41 214.66 208.02 217.38C207.32 223.2 206.71 228.03 207.07 232.52C207.4 234.76 208.71 235.65 209.8 236.69C209.83 237.29 209.92 239.3 210 240.41C221.44 241.43 232.7 244.38 243.07 248.81C260.22 231.3 275.75 216.1 289.56 203.34C293.86 199.37 297.94 195.68 301.82 192.25L212.5 149.6ZM159.78 332.43L159.82 332.25L127.05 302.95C117.33 318.79 112.72 337.79 114.86 357.34L151.82 346.83C155.18 343.09 158.57 339.31 162 335.5C161.57 334.39 160.73 333.26 159.78 332.43ZM181.46 264.05C165.2 267.74 151.09 275.76 140.06 286.6L175.95 312.04L176.02 312C177.24 312.89 178.73 313.41 180.35 313.41C180.91 313.41 181.61 313.47 182.13 313.35L187.79 307.18C187.83 306.95 187.87 306.51 187.87 306.28L190.35 262.52C187.36 262.88 184.39 263.39 181.46 264.05ZM245.65 371.39L282.33 377.59C275.97 395.45 263.8 410.92 247.55 421.28L233.72 387.87L233.78 387.78C233.78 387.78 233.8 387.75 233.81 387.73C237.59 382.44 241.59 376.92 245.65 371.39Z" fill="#326CE5" stroke="black" stroke-width="2" stroke-miterlimit="10"/>
<path d="M201.94 434.82C201.94 434.82 201.89 434.9 201.86 434.94H202.09C202.09 434.94 202.14 434.85 202.17 434.81C202.09 434.82 202.02 434.82 201.94 434.82ZM298.79 302.34C293.59 308.78 288.34 315.35 283.08 322.01C283.1 322.09 283.13 322.16 283.15 322.24C283.18 322.2 283.21 322.17 283.24 322.13C288.48 315.5 293.71 308.95 298.88 302.54C298.85 302.47 298.82 302.41 298.79 302.34Z" fill="white" stroke="white" stroke-width="0.28" stroke-miterlimit="4.43"/>
<path d="M375.86 158.52H409.818L386.975 183.612C386.847 183.751 374.62 197.209 356.076 218.553C355.267 219.482 354.445 220.424 353.614 221.385C343.522 233.044 333.307 245.033 323.178 257.109L318.843 262.289C318.66 262.494 318.475 262.721 318.338 262.882L318.332 262.89C317.311 264.115 316.288 265.342 315.283 266.561C315.253 266.588 315.225 266.616 315.2 266.644L315.171 266.681C307.759 275.614 300.536 284.417 293.533 293.06V293.061C288.441 299.353 283.469 305.556 278.627 311.668C271.888 320.167 265.389 328.486 259.169 336.585L259.009 336.786L259.003 336.793L258.996 336.802C257.107 339.269 255.215 341.732 253.332 344.208L251.452 346.687L251.45 346.69C251.441 346.701 251.43 346.717 251.411 346.741C251.396 346.76 251.373 346.789 251.352 346.816C245.259 354.861 239.416 362.736 233.843 370.39C232.381 372.393 230.949 374.375 229.539 376.335C224.445 383.401 219.6 390.267 215.036 396.893L215.035 396.895C214.057 398.323 213.085 399.735 212.124 401.146C204.266 412.657 197.117 423.641 190.798 433.917L190.797 433.917C189.817 435.517 188.845 437.11 187.903 438.684C184.748 443.923 181.733 449.112 178.917 454.163L178.914 454.167C178.327 455.232 177.734 456.299 177.153 457.36L177.152 457.361C165.038 479.564 158.144 494.325 155.245 504.549C153.794 509.668 153.322 513.725 153.739 517.049C154.161 520.407 155.486 522.974 157.53 525.094L157.544 525.108L157.558 525.122L167.866 535H123.63V535L123.617 535C122.892 535.01 122.167 534.981 121.453 534.915L121.436 534.99C120.72 534.89 120.01 534.774 119.309 534.646L119.299 534.644L118.713 534.537C118.519 534.499 118.325 534.46 118.131 534.42H118.13C113.322 533.372 108.889 530.964 105.402 527.477C105.354 527.424 105.315 527.393 105.305 527.384C105.301 527.381 105.297 527.379 105.293 527.375C105.231 527.313 105.199 527.281 105.18 527.256L105.141 527.207L105.098 527.163L104.699 526.751C104.438 526.472 104.183 526.182 103.932 525.884L103.557 525.431L95.4891 515.403L82.4491 499.193L82.3046 499.01L82.2987 499.003L74.2792 489.034V489.033L68.119 481.383H68.12L58.4139 469.304C64.9469 461.522 83.429 439.663 108.785 410.496L108.784 410.495C113.413 405.176 118.263 399.628 123.293 393.878L123.292 393.877C132.9 382.93 142.818 371.703 152.796 360.526C160.214 352.218 167.662 343.929 174.96 335.881L174.961 335.882C178.402 332.091 181.85 328.284 185.327 324.497L185.328 324.495C192.677 316.456 199.495 309.049 206.162 301.892V301.891C217.868 289.305 228.994 277.55 239.239 266.945L239.24 266.944C244.898 261.076 249.955 255.879 254.711 251.074L254.712 251.073C277.98 227.485 298.253 208.261 314.989 193.906L316.598 192.532C331.493 179.872 342.252 172.063 351.64 166.615L351.641 166.616C363.425 159.802 370.494 158.52 375.86 158.52Z" fill="white" stroke="black" stroke-width="2"/>
<path d="M526.388 1.00415C528.676 0.830282 530.447 1.55242 531.542 2.75415C532.708 4.03411 533.245 6.01105 532.648 8.46411C528.713 24.6686 519.806 40.5953 507.286 53.8L498.797 62.6995L498.582 62.9241L498.533 63.2297L492.073 103.049C491.746 105.061 490.816 106.937 489.405 108.421L489.404 108.422L484.382 113.716L469.502 95.0667L468.787 94.1711L467.996 94.9993L418.108 147.295C418.08 147.296 418.05 147.297 418.017 147.298C417.764 147.304 417.41 147.312 416.963 147.32C416.073 147.336 414.812 147.356 413.28 147.384C410.211 147.441 406.024 147.529 401.375 147.678C392.09 147.975 380.919 148.516 373.13 149.538C353.934 152.064 343.94 160.659 335.632 167.011C345.458 155.581 360.916 142.453 376.959 129.297C395.541 114.06 414.879 98.8021 426.745 86.2981L441.936 70.2981L442.727 69.4651L441.792 68.7971L422.496 54.9895L427.515 49.6975C428.927 48.213 430.739 47.1944 432.743 46.7571L432.742 46.7561L472.142 38.2268L472.443 38.1624L472.655 37.9377L481.136 28.9983C493.848 15.6027 509.553 5.79251 525.794 1.08911L525.932 1.06958L526.388 1.00415Z" fill="white" stroke="black" stroke-width="2"/>
</g>
<defs>
<clipPath id="clip0_349_6645">
<rect width="533.89" height="536.5" fill="white"/>
</clipPath>
</defs>
</svg>
